<svg width="48" height="48" viewBox="0 0 48 48" fill="none" xmlns="http://www.w3.org/2000/svg">
<path d="M32.0584 9.43845C32.3393 9.71976 32.4971 10.101 32.4971 10.4984C32.4971 10.8959 32.3393 11.2772 32.0584 11.5585L20.6183 22.9984L32.0584 34.4386C32.3232 34.723 32.4674 35.0992 32.4607 35.4877C32.454 35.8765 32.2969 36.2473 32.0224 36.5224C31.7472 36.7969 31.3763 36.9541 30.9877 36.9607C30.5991 36.9676 30.223 36.8233 29.9384 36.5584L17.4383 24.0584C17.1575 23.7772 16.9997 23.396 16.9997 22.9984C16.9997 22.6009 17.1575 22.2196 17.4383 21.9385L29.9384 9.43845C30.2197 9.15765 30.6008 8.99976 30.9984 8.99976C31.3959 8.99976 31.7771 9.15765 32.0584 9.43845Z" fill="white"/>
</svg>
