<svg width="28" height="28" viewBox="0 0 28 28" fill="none" xmlns="http://www.w3.org/2000/svg">
<path d="M22.0558 9.25614C21.8917 9.09228 21.6693 9.00024 21.4375 9.00024C21.2056 9.00024 20.9832 9.09228 20.8191 9.25614L14.1458 15.9295L7.47246 9.25614C7.30648 9.10166 7.08709 9.01754 6.86039 9.02146C6.63368 9.02538 6.41733 9.11702 6.25679 9.27714C6.09667 9.43768 6.00502 9.65404 6.00111 9.88074C5.99719 10.1074 6.08131 10.3268 6.23579 10.4928L13.5275 17.7845C13.6915 17.9483 13.9139 18.0404 14.1458 18.0404C14.3777 18.0404 14.6001 17.9483 14.7641 17.7845L22.0558 10.4928C22.2196 10.3287 22.3117 10.1064 22.3117 9.87447C22.3117 9.6426 22.2196 9.4202 22.0558 9.25614Z" fill="black"/>
</svg>
