<svg width="16" height="16" viewBox="0 0 16 16" fill="none" xmlns="http://www.w3.org/2000/svg">
<path d="M6.14623 3.14613C6.05259 3.2399 6 3.36699 6 3.49944C6 3.63196 6.05259 3.75904 6.14623 3.85282L9.95958 7.66613L6.14623 11.4795C6.05795 11.5743 6.00989 11.6997 6.01213 11.8292C6.01437 11.9588 6.06673 12.0824 6.15823 12.1741C6.24997 12.2656 6.3736 12.318 6.50314 12.3202C6.63266 12.3225 6.75803 12.2744 6.85289 12.1861L11.0196 8.01944C11.1132 7.92573 11.1658 7.79864 11.1658 7.66613C11.1658 7.53362 11.1132 7.40653 11.0196 7.31282L6.85289 3.14613C6.75912 3.05253 6.63209 2.9999 6.49956 2.9999C6.36706 2.9999 6.23998 3.05253 6.14623 3.14613Z" fill="white"/>
</svg>
