<svg width="146" height="26" viewBox="0 0 146 26" fill="none" xmlns="http://www.w3.org/2000/svg">
<g clip-path="url(#clip0_226_7)">
<path d="M0 0V25.96H21.45L20.79 20.9L6.16 20.79L5.83 0H0Z" fill="white"/>
<path d="M33.1104 0H27.9404V25.96H33.1104V0Z" fill="white"/>
<path d="M39.9297 0H45.7597L53.1297 15.84L61.0497 0H66.4397L54.5597 25.96H52.1397L39.9297 0Z" fill="white"/>
<path d="M93.26 25.96H87.43L80.06 10.12L72.14 25.96H66.75L78.63 0H81.05L93.26 25.96Z" fill="white"/>
<path d="M113.75 14.85C113.75 14.85 117.93 12.87 118.04 8.36C118.15 3.85 113.75 0.11 111.33 0H98.6797V25.96H103.96V16.06L108.91 15.95L114.41 25.96H120.02L113.75 14.85ZM110.12 11.88H104.18V5.17H110.12C114.63 8.36 110.12 11.88 110.12 11.88Z" fill="white"/>
<path d="M123.98 0V5.17H132.56V25.96H138.28V5.17H145.98V0H123.98Z" fill="white"/>
</g>
<defs>
<clipPath id="clip0_226_7">
<rect width="145.98" height="25.96" fill="white"/>
</clipPath>
</defs>
</svg>
